<svg width="28" height="29" viewBox="0 0 28 29" fill="none" xmlns="http://www.w3.org/2000/svg">
<path d="M0.946406 8.51639V26.9794C0.946406 27.3559 1.09597 27.7171 1.36221 27.9835C1.62865 28.2498 1.98978 28.3993 2.36637 28.3993H25.0856C25.4622 28.3993 25.8234 28.2498 26.0898 27.9835C26.3561 27.7171 26.5056 27.3559 26.5056 26.9794V8.51639C27.0421 8.12059 27.3846 7.51502 27.4475 6.85139C27.4628 6.65746 27.4319 6.46273 27.357 6.28326L26.5056 4.16798V1.41996C26.5056 1.04338 26.356 0.682248 26.0898 0.415803C25.8234 0.149562 25.4622 0 25.0856 0H2.36636C1.98978 0 1.62864 0.149562 1.3622 0.415803C1.09596 0.682243 0.946396 1.04337 0.946396 1.41996V4.16798L0.094372 6.28326C0.0190942 6.46274 -0.01181 6.65746 0.00404281 6.85139C0.0670381 7.51502 0.409764 8.12058 0.946406 8.51639ZM1.7392 4.73313H25.7121L26.2838 6.15308H1.16731L1.7392 4.73313ZM25.0909 8.04648C24.7981 8.04549 24.5128 7.95397 24.2741 7.7844C24.0352 7.61503 23.8548 7.37593 23.7571 7.09978H26.4267C26.3302 7.37691 26.1495 7.617 25.9102 7.78678C25.6707 7.95636 25.3844 8.04727 25.0909 8.04648ZM22.6359 7.09958V7.09978C22.5059 7.47081 22.2276 7.77091 21.8673 7.92822C21.5069 8.08531 21.0974 8.08531 20.7373 7.92822C20.377 7.77093 20.0985 7.47082 19.9687 7.09978L22.6359 7.09958ZM18.8492 7.09958V7.09978C18.7197 7.47081 18.4412 7.77111 18.0811 7.92842C17.7207 8.08552 17.3112 8.08552 16.9509 7.92842C16.5908 7.77113 16.3122 7.47082 16.1827 7.09978L18.8492 7.09958ZM15.0626 7.09958V7.09978C14.9331 7.47101 14.6546 7.77132 14.2942 7.92863C13.9337 8.08611 13.524 8.08611 13.1637 7.92863C12.8034 7.77134 12.5248 7.47103 12.3951 7.09978L15.0626 7.09958ZM11.276 7.09958L11.2762 7.09978C11.1463 7.47081 10.8679 7.77091 10.5076 7.92822C10.1473 8.08531 9.7378 8.08531 9.37769 7.92822C9.01735 7.77093 8.73881 7.47082 8.60909 7.09978L11.276 7.09958ZM7.48941 7.09958L7.4896 7.09978C7.36005 7.47081 7.08152 7.77111 6.72141 7.92842C6.36107 8.08552 5.95159 8.08552 5.59128 7.92842C5.23113 7.77113 4.9526 7.47082 4.82308 7.09978L7.48941 7.09958ZM3.70279 7.09958L3.70299 7.09978C3.57304 7.47101 3.29432 7.77132 2.93378 7.92863C2.57324 8.08594 2.1634 8.08592 1.80284 7.92863C1.44227 7.77134 1.1636 7.47103 1.03363 7.09978L3.70279 7.09958ZM25.5589 26.9789C25.5589 27.1045 25.5092 27.2248 25.4205 27.3137C25.3315 27.4025 25.2113 27.4522 25.0857 27.4522H2.36641C2.10492 27.4522 1.89316 27.2404 1.89316 26.979V8.94553C2.04728 8.97663 2.20397 8.99248 2.36126 8.99287C3.10613 8.99287 3.80758 8.64224 4.25446 8.04637C4.70137 8.64225 5.40285 8.99287 6.14767 8.99287C6.89269 8.99287 7.59415 8.64224 8.04108 8.04637C8.48798 8.64225 9.18947 8.99287 9.93428 8.99287C10.6791 8.99287 11.3806 8.64224 11.8275 8.04637C12.2746 8.64225 12.9759 8.99287 13.7209 8.99287C14.4658 8.99287 15.1672 8.64224 15.6141 8.04637C16.061 8.64225 16.7625 8.99287 17.5073 8.99287C18.2523 8.99287 18.9538 8.64224 19.4007 8.04637C19.8476 8.64225 20.5491 8.99287 21.2939 8.99287C22.0387 8.99287 22.7402 8.64224 23.1871 8.04637C23.6342 8.64225 24.3355 8.99287 25.0805 8.99287C25.2412 8.99307 25.4015 8.97722 25.5589 8.94553V26.9789ZM1.89336 1.41976C1.89336 1.15828 2.10513 0.946511 2.36661 0.946511H25.0859C25.2115 0.946511 25.3317 0.996234 25.4207 1.08498C25.5094 1.17393 25.5591 1.29417 25.5591 1.41977V3.78643H1.89357L1.89336 1.41976Z" fill="#3B3B3B"/>
<path d="M3.78654 1.89343H3.31329C3.05181 1.89343 2.83984 2.1054 2.83984 2.36688C2.83984 2.62817 3.05181 2.84013 3.31329 2.84013H3.78654C4.04803 2.84013 4.25979 2.62817 4.25979 2.36688C4.25979 2.1054 4.04803 1.89343 3.78654 1.89343Z" fill="#3B3B3B"/>
<path d="M6.15275 1.89343H5.67931C5.41802 1.89343 5.20605 2.1054 5.20605 2.36688C5.20605 2.62817 5.41802 2.84013 5.67931 2.84013H6.15275C6.41404 2.84013 6.626 2.62817 6.626 2.36688C6.626 2.1054 6.41404 1.89343 6.15275 1.89343Z" fill="#3B3B3B"/>
<path d="M8.51926 1.89343H8.046C7.78452 1.89343 7.57275 2.1054 7.57275 2.36688C7.57275 2.62817 7.78452 2.84013 8.046 2.84013H8.51926C8.78074 2.84013 8.9927 2.62817 8.9927 2.36688C8.9927 2.1054 8.78074 1.89343 8.51926 1.89343Z" fill="#3B3B3B"/>
<path d="M24.1387 1.89343H21.7723C21.5108 1.89343 21.2988 2.1054 21.2988 2.36688C21.2988 2.62817 21.5108 2.84013 21.7723 2.84013H24.1389H24.1387C24.4002 2.84013 24.6122 2.62817 24.6122 2.36688C24.6122 2.1054 24.4002 1.89343 24.1387 1.89343Z" fill="#3B3B3B"/>
<path d="M20.353 13.253H9.16726L9.04087 12.1941C9.01333 11.9641 8.9024 11.7522 8.72907 11.5982C8.55573 11.4445 8.33208 11.3595 8.10033 11.3597H6.15362C5.89214 11.3597 5.68018 11.5717 5.68018 11.833C5.68018 12.0945 5.89214 12.3064 6.15362 12.3064H8.10033L9.41947 23.305C9.44086 23.4799 9.5106 23.6455 9.62094 23.783C9.73147 23.9205 9.87806 24.0245 10.0443 24.0831C9.8638 24.517 9.90936 25.0122 10.1661 25.4058C10.4228 25.7996 10.8575 26.0411 11.3273 26.051C11.7972 26.0611 12.2417 25.8383 12.5149 25.456C12.7881 25.0734 12.8548 24.5808 12.693 24.1394H15.2338C15.1777 24.291 15.1482 24.4512 15.1466 24.6127C15.1466 25.12 15.4172 25.5889 15.8566 25.8425C16.296 26.096 16.8372 26.096 17.2766 25.8425C17.7159 25.5889 17.9865 25.12 17.9865 24.6127C17.985 24.4512 17.9554 24.291 17.8994 24.1394H17.9865C18.248 24.1394 18.4598 23.9275 18.4598 23.6662C18.4598 23.4047 18.248 23.1927 17.9865 23.1927H10.3599L10.1895 21.7728H18.2229C18.5117 21.772 18.7934 21.6834 19.0307 21.5188C19.2681 21.354 19.4497 21.121 19.5516 20.8508L21.6815 15.171C21.8445 14.7352 21.7839 14.2471 21.5189 13.8643C21.2538 13.4818 20.8182 13.2534 20.3529 13.253L20.353 13.253ZM20.7406 14.4031C20.83 14.5301 20.8504 14.6931 20.7949 14.8381L20.5019 15.6196H18.4738L18.8288 14.1997H20.353C20.5081 14.1985 20.6537 14.2747 20.741 14.4031L20.7406 14.4031ZM9.56456 16.5663H11.5364L11.6547 18.4595H9.7916L9.56456 16.5663ZM12.4849 16.5663H14.4946L14.3763 18.4595H12.6032L12.4849 16.5663ZM14.5538 15.6196H12.4239L12.335 14.1997H14.641L14.5538 15.6196ZM15.5909 14.1997H17.8537L17.4987 15.6196H15.5023L15.5909 14.1997ZM14.3171 19.4063L14.2286 20.8263H12.7509L12.6624 19.4063H14.3171ZM15.2638 19.4063H16.552L16.197 20.8263H15.1766L15.2638 19.4063ZM15.323 18.4596L15.4413 16.5664H17.262L16.7887 18.4596H15.323ZM18.2355 16.5664H20.1453L19.4353 18.4596H17.7638L18.2355 16.5664ZM11.3887 14.1998L11.4773 15.6197H9.45097L9.28061 14.1998H11.3887ZM11.8333 24.6126C11.8333 24.8041 11.718 24.9767 11.5411 25.05C11.3642 25.1233 11.1605 25.0827 11.0252 24.9474C10.8897 24.8121 10.8493 24.6084 10.9226 24.4315C10.9959 24.2546 11.1685 24.1393 11.3598 24.1393C11.4854 24.1393 11.6059 24.1893 11.6946 24.278C11.7834 24.3668 11.8333 24.4872 11.8333 24.6126ZM17.0397 24.6126C17.0397 24.8041 16.9245 24.9767 16.7476 25.05C16.5709 25.1233 16.3672 25.0827 16.2317 24.9474C16.0964 24.8121 16.056 24.6084 16.1293 24.4315C16.2024 24.2546 16.3751 24.1393 16.5665 24.1393C16.6921 24.1393 16.8123 24.1893 16.9013 24.278C16.99 24.3668 17.0397 24.4872 17.0397 24.6126ZM9.90569 19.4064H11.7143L11.8032 20.8264H10.076L9.90569 19.4064ZM18.2236 20.8264H17.1727L17.5277 19.4064H19.0825L18.6655 20.5197V20.5195C18.5964 20.7038 18.4203 20.826 18.2236 20.8264Z" fill="#3B3B3B"/>
</svg>
