<svg width="29" height="28" viewBox="0 0 29 28" fill="none" xmlns="http://www.w3.org/2000/svg">
<path d="M26.1 16.4045H20.9568L20.3535 8.21215L24.4705 9.80906C24.6183 9.86722 24.7881 9.84881 24.921 9.76177C25.0535 9.67493 25.1333 9.52972 25.1333 9.37404V3.28092C25.1333 3.09343 25.0183 2.92374 24.8405 2.85008L18.0739 0.0378727C18.0139 0.0125542 17.9491 0 17.8833 0H7.25C7.18419 0 7.11946 0.0125547 7.05947 0.0378727L0.292806 2.85008C0.115006 2.92374 0 3.09343 0 3.28092V9.37404C0 9.52971 0.0798355 9.67493 0.212103 9.76219C0.344586 9.84944 0.51419 9.86722 0.662636 9.80947L4.77959 8.21257L3.86794 20.5895C3.8578 20.7192 3.90462 20.8473 3.99654 20.9425C4.08759 21.0375 4.2162 21.0915 4.34997 21.0915H20.7833C20.9171 21.0915 21.0457 21.0375 21.1365 20.9425C21.2278 20.8473 21.2748 20.7194 21.2651 20.5895L21.0258 17.3419H26.1C27.1661 17.3419 28.0333 18.1828 28.0333 19.2167V19.6854C28.0333 20.411 27.6341 21.0375 26.9645 21.3618C26.9617 21.3633 26.9587 21.3641 26.9559 21.3656C27.0424 20.8195 26.8748 20.2422 26.4417 19.8226C25.7206 19.1233 24.5462 19.1233 23.825 19.8226L22.8584 20.76C22.2609 21.3388 22.1662 22.2164 22.5578 22.8987L17.5579 27.3064L18.2084 28L23.2331 23.5704C23.5212 23.734 23.8427 23.8221 24.1664 23.8221C24.64 23.8221 25.1143 23.6472 25.4749 23.2975L26.3101 22.4875C26.6808 22.4608 27.0496 22.3685 27.3972 22.2002C28.3857 21.7215 29 20.7573 29 19.6854V19.2167C29 17.6658 27.6993 16.4045 26.1 16.4045ZM15.95 0.937358C15.95 2.74607 14.4318 4.21827 12.5667 4.21827C10.7015 4.21827 9.18334 2.74607 9.18334 0.937358H15.95ZM20.2642 20.1541H4.86935L5.7989 7.5324C5.81098 7.37107 5.73654 7.2156 5.60211 7.1204C5.46768 7.0252 5.2914 7.00364 5.13755 7.06369L0.966849 8.68176V3.58967L7.34906 0.937304H8.21669C8.21669 3.26346 10.1679 5.15562 12.5667 5.15562C14.9655 5.15562 16.9167 3.26346 16.9167 0.937304H17.7843L24.1665 3.58967V8.6816L19.9958 7.06375C19.8407 7.0037 19.6653 7.02525 19.5313 7.12045C19.3968 7.21566 19.322 7.37113 19.3345 7.53245L19.9881 16.4046H17.8832V17.342H20.0567L20.2642 20.1541ZM23.5418 22.6349C23.1972 22.3007 23.1972 21.7569 23.5418 21.4227L24.5085 20.4853C24.6805 20.3186 24.9072 20.2351 25.1333 20.2351C25.3594 20.2351 25.5862 20.3186 25.7582 20.4853C26.0564 20.7745 26.095 21.2198 25.8775 21.5512C25.547 21.5137 25.225 21.3928 24.9394 21.1856L24.36 21.9351C24.5931 22.1048 24.8472 22.2314 25.1111 22.3252L24.7916 22.6351C24.447 22.969 23.8864 22.969 23.5418 22.6349Z" fill="#3B3B3B"/>
</svg>
