<svg width="28" height="28" viewBox="0 0 28 28" fill="none" xmlns="http://www.w3.org/2000/svg">
<path fill-rule="evenodd" clip-rule="evenodd" d="M13.4997 12.4797V14.6872L9.69789 16.5372C8.70953 15.8816 7.52386 15.4997 6.25003 15.4997C2.80063 15.4997 0 18.3001 0 21.7499C0 25.1996 2.80034 28 6.25003 28C9.69972 28 12.5001 25.1996 12.5001 21.7499C12.5001 19.9725 11.7565 18.3674 10.5635 17.2285L14 15.556L17.4365 17.2285C16.2435 18.3676 15.4999 19.9725 15.4999 21.7499C15.4999 25.1993 18.3003 28 21.75 28C25.1997 28 28 25.1996 28 21.7499C28 18.3001 25.1997 15.4997 21.75 15.4997C20.4759 15.4997 19.2905 15.8816 18.3021 16.5372L14.5003 14.6872V12.4797C17.7162 12.2248 20.2497 9.53068 20.2497 6.25013C20.2497 2.80067 17.4494 0 13.9997 0C10.55 0 7.74968 2.80039 7.74968 6.25013C7.74968 9.53108 10.2835 12.2248 13.4992 12.4797H13.4997ZM24.8918 25.9542C24.8677 24.2402 23.4689 22.8563 21.7496 22.8563C20.0302 22.8563 18.6312 24.2402 18.6073 25.9542C19.4838 26.6102 20.5717 26.9993 21.7496 26.9993C22.9274 26.9993 24.0155 26.6102 24.8918 25.9542ZM9.39247 25.9542C9.36837 24.2402 7.96956 22.8563 6.2502 22.8563C4.53084 22.8563 3.13181 24.2402 3.10793 25.9542C3.98447 26.6102 5.07236 26.9993 6.2502 26.9993C7.42804 26.9993 8.51617 26.6102 9.39247 25.9542ZM10.294 25.0958C11.0469 24.1874 11.4999 23.0209 11.4999 21.7495C11.4999 18.852 9.14757 16.4996 6.25014 16.4996C3.35272 16.4996 1.00036 18.852 1.00036 21.7495C1.00036 23.0209 1.45324 24.1874 2.20631 25.0958C2.48621 23.8389 3.33821 22.7963 4.47427 22.2559C3.77385 21.7209 3.32186 20.8769 3.32186 19.9281C3.32186 18.3116 4.63387 16.9996 6.25032 16.9996C7.86676 16.9996 9.17877 18.3116 9.17877 19.9281C9.17877 20.8771 8.72678 21.7211 8.02636 22.2559C9.16225 22.7963 10.0142 23.8389 10.2943 25.0958H10.294ZM25.7933 25.0958C26.5462 24.1874 26.9993 23.0209 26.9993 21.7495C26.9993 18.852 24.6469 16.4996 21.7495 16.4996C18.8521 16.4996 16.4997 18.852 16.4997 21.7495C16.4997 23.0209 16.9526 24.1874 17.7057 25.0958C17.9856 23.8389 18.8376 22.7963 19.9736 22.2559C19.2732 21.7209 18.8212 20.8769 18.8212 19.9281C18.8212 18.3116 20.1332 16.9996 21.7497 16.9996C23.3661 16.9996 24.6781 18.3116 24.6781 19.9281C24.6781 20.8771 24.2261 21.7211 23.5257 22.2559C24.6616 22.7963 25.5136 23.8389 25.7937 25.0958H25.7933ZM21.7495 17.9994C22.814 17.9994 23.678 18.8634 23.678 19.9279C23.678 20.9924 22.814 21.8564 21.7495 21.8564C20.685 21.8564 19.821 20.9924 19.821 19.9279C19.821 18.8634 20.685 17.9994 21.7495 17.9994ZM6.25014 17.9994C7.31462 17.9994 8.17864 18.8634 8.17864 19.9279C8.17864 20.9924 7.31462 21.8564 6.25014 21.8564C5.18567 21.8564 4.32165 20.9924 4.32165 19.9279C4.32165 18.8634 5.18567 17.9994 6.25014 17.9994ZM17.1423 10.4544C17.1182 8.74041 15.7194 7.35651 14 7.35651C12.2806 7.35651 10.8816 8.74041 10.8577 10.4544C11.7343 11.1104 12.8222 11.4995 14 11.4995C15.1778 11.4995 16.266 11.1104 17.1423 10.4544ZM18.0438 9.59599C18.7967 8.68756 19.2497 7.52107 19.2497 6.24968C19.2497 3.3522 16.8974 0.999804 13.9999 0.999804C11.1025 0.999804 8.75016 3.3522 8.75016 6.24968C8.75016 7.52107 9.20304 8.68756 9.95611 9.59599C10.236 8.33911 11.088 7.29651 12.2241 6.75612C11.5236 6.22109 11.0717 5.37713 11.0717 4.42829C11.0717 2.81182 12.3837 1.49979 14.0001 1.49979C15.6166 1.49979 16.9286 2.81182 16.9286 4.42829C16.9286 5.37735 16.4766 6.22133 15.7762 6.75612C16.9121 7.29651 17.764 8.33911 18.0441 9.59599H18.0438ZM13.9999 2.4996C15.0644 2.4996 15.9284 3.36363 15.9284 4.42812C15.9284 5.49261 15.0644 6.35664 13.9999 6.35664C12.9355 6.35664 12.0714 5.49261 12.0714 4.42812C12.0714 3.36363 12.9355 2.4996 13.9999 2.4996Z" fill="#3B3B3B"/>
</svg>
