<svg width="24" height="29" viewBox="0 0 24 29" fill="none" xmlns="http://www.w3.org/2000/svg">
<path d="M14.8559 27.0376C14.2511 27.038 13.6677 26.8139 13.2188 26.4088C12.7697 26.0039 12.4867 25.4466 12.4248 24.8449L11.0616 24.3451C11.0556 24.4283 11.0556 24.5119 11.0616 24.5951C11.077 25.654 11.5331 26.6584 12.3198 27.3672C13.1067 28.0759 14.1533 28.4247 15.208 28.3298C16.2627 28.2349 17.2301 27.705 17.8779 26.8672L16.5147 26.3673L16.5145 26.3671C16.067 26.7933 15.4739 27.033 14.856 27.0376L14.8559 27.0376Z" fill="#3B3B3B"/>
<path d="M23.3871 5.33941C22.6031 3.09109 20.8711 1.30078 18.6499 0.442971C17.8369 0.152147 16.98 0.00218077 16.1165 0C15.7976 0.00118867 15.479 0.0202071 15.1622 0.0568573C13.3706 0.305881 11.6916 1.07614 10.3342 2.27212C8.84937 3.57825 7.71993 5.23919 7.05114 7.1002C6.47724 8.88731 5.63445 10.5768 4.55182 12.1101C4.25664 12.4949 3.90419 12.832 3.50663 13.1098C3.11774 13.3778 2.70745 13.6134 2.27976 13.8141C1.91762 13.9512 1.57111 14.1263 1.24603 14.3367C1.00948 14.4928 0.80187 14.6889 0.632469 14.9162C0.43654 15.1822 0.283206 15.4774 0.178209 15.7908C-0.0939917 16.5321 -0.0529832 17.3523 0.291726 18.0629C0.633265 18.7805 1.2464 19.3322 1.99587 19.5965L19.0363 25.8107V25.8109C19.3515 25.9323 19.6867 25.9939 20.0247 25.9925H20.1951C20.7587 25.9484 21.2946 25.73 21.7286 25.3677C22.151 25.0008 22.4717 24.5313 22.6601 24.0045C22.7835 23.6699 22.8451 23.3159 22.8419 22.9593C22.8479 22.531 22.7546 22.1073 22.5693 21.7212C22.4667 21.4939 22.3491 21.2738 22.2171 21.0623C22.1763 21.0056 22.142 20.9446 22.1149 20.8804C22.0168 20.6981 21.9443 20.5032 21.899 20.3011C21.7425 19.5731 21.7155 18.8232 21.8195 18.0859C22.02 16.5801 22.4016 15.1037 22.9554 13.6894C23.0236 13.485 23.103 13.2805 23.194 13.0646C23.2156 12.9872 23.2421 12.9113 23.2736 12.8374C24.2013 10.431 24.2418 7.77296 23.3871 5.33958L23.3871 5.33941ZM22.0466 12.326L21.9785 12.5304C21.8876 12.7464 21.8081 12.9621 21.7285 13.1781C21.1474 14.6974 20.747 16.2799 20.5356 17.8927C20.4128 18.7897 20.4513 19.7014 20.6492 20.585C20.7205 20.8934 20.8312 21.1912 20.9786 21.4711L21.0808 21.6643L21.1718 21.8233C21.2554 21.959 21.3312 22.0993 21.399 22.2437C21.5028 22.4515 21.5535 22.6817 21.5468 22.9139C21.5478 23.1237 21.5092 23.3317 21.4331 23.5273C21.3217 23.8316 21.1387 24.1044 20.8992 24.3227C20.6892 24.4965 20.4321 24.6032 20.1608 24.6294H20.0699C19.892 24.6268 19.7157 24.5963 19.5473 24.5385L2.50681 18.3243C2.09376 18.1735 1.75561 17.8678 1.56401 17.4722C1.38333 17.0914 1.35877 16.6552 1.49566 16.2566C1.56361 16.0714 1.65513 15.8956 1.76845 15.734C1.85126 15.6317 1.94675 15.54 2.05234 15.4614C2.22569 15.3445 2.41271 15.2492 2.60905 15.1775L2.90443 15.0412V15.041C3.41159 14.8147 3.89815 14.5449 4.35855 14.2345C4.86055 13.8767 5.3083 13.4482 5.68765 12.9622C6.82992 11.3088 7.71826 9.49376 8.32329 7.57726C8.92159 5.93671 9.92145 4.47194 11.2315 3.31715C12.3768 2.29153 13.7996 1.62771 15.3213 1.40877C15.5862 1.39213 15.8516 1.39213 16.1165 1.40877C16.8188 1.39589 17.5181 1.50346 18.1842 1.72673C20.022 2.45693 21.4522 3.94929 22.1033 5.81649C22.8629 7.92337 22.8427 10.2327 22.0467 12.3258L22.0466 12.326Z" fill="#3B3B3B"/>
<path d="M17.7184 3.0105H17.6502L17.1504 4.28295H17.2526C18.3281 4.74098 19.1556 5.63858 19.5245 6.74799C20.0459 8.26175 20.0178 9.91077 19.4451 11.4057V11.4852C19.3429 11.7352 19.2519 11.9737 19.161 12.235C18.7656 13.323 18.4393 14.4346 18.1841 15.5636L19.4791 16.0294C19.7333 14.9039 20.0596 13.7959 20.4562 12.7122L20.7288 12.0193V11.9283C21.3868 10.139 21.3868 8.17401 20.7288 6.38461C20.2662 4.87425 19.1663 3.6416 17.7184 3.01065L17.7184 3.0105Z" fill="#3B3B3B"/>
</svg>
